<?xml version="1.0" encoding="UTF-8"?>
<svg width="1200pt" height="1200pt" version="1.1" viewBox="0 0 1200 1200" xmlns="http://www.w3.org/2000/svg">
 <path d="m1164.1 859.04c-10.34-20.789-22.043-44.344-29.574-76.727-10.965-47.207-4.8359-68.344 2.918-95.094 6.2969-21.711 13.422-46.281 13.422-87.562 0-46.172-1.7344-69.637-3.3984-92.344-1.625-22.211-3.3242-45.156-3.3242-90.332 0-32.215 7.8281-54.426 14.715-74.031 11.926-33.934 22.246-63.23-23.281-110.12-24.906-25.66-45.602-36.609-69.211-36.609-13.383 0-25.809 3.4531-40.246 7.4414-18.609 5.1523-39.691 11.004-69.34 11.004-43.719 0-64.949-1.9023-87.434-3.9141-22.078-1.9766-44.953-4.0234-89.906-4.0234-44.934 0-67.789 2.125-89.871 4.1719-22.449 2.0859-43.66 4.043-87.324 4.043-43.625 0-64.82-2.125-87.25-4.3555-22.137-2.2148-45.008-4.5039-90-4.5039-45.211 0-68.195 3.082-90.426 6.0742-22.301 2.9922-43.383 5.8164-86.77 5.8164-31.902 0-56.695-10.32-80.676-20.309-19.793-8.2422-38.492-16.031-58.266-16.031-21.895 0-42.02 9.8047-61.57 29.98-45.359 46.801-31.586 84.312-17.023 124.06 8.418 22.93 17.945 48.922 17.945 81.379 0 45.875 0.60938 68.824 1.2188 91.754 0.60938 22.746 1.1992 45.508 1.1992 91.016 0 46.984 4.5977 70.855 9.0469 93.934 4.3945 22.82 8.5469 44.383 8.5469 88.746 0 34.008-12.535 58.949-24.645 83.094-17.723 35.297-36.074 71.832 8.457 117.69 23.242 23.945 45.988 35.094 71.594 35.078 16.543 0 32.805-4.4844 50.031-9.2695 20.934-5.7969 44.66-12.371 74.309-12.371 45.82 0 69.102-5.0391 91.605-9.9336 22.043-4.7812 42.867-9.3047 85.719-9.3047 44.934 0 67.754-2.0508 89.852-4.0625 22.469-2.0117 43.68-3.9336 87.359-3.9336 42.664 0 63.398 5.0391 85.348 10.395 22.598 5.5 45.934 11.168 91.922 11.168 43.789 0 66.055 1.6445 87.582 3.25 22.023 1.625 44.824 3.3242 89.613 3.3242 29.336 0 52.762 6.2227 73.441 11.703 16.891 4.4844 32.844 8.7305 49.016 8.7305 26.234 0 48.59-11.004 72.48-35.629 48.582-50.137 32.523-82.461 12.195-123.39zm-220.78-341.3c-11.297-33.859-17.52-52.523 14.547-85.457 30.684-31.531 47.777-25.605 81.805-13.789 19.977 6.9414 44.844 15.305 76.891 15.988 0.38672 34.949 1.8633 55.219 3.3047 74.844 1.625 22.191 3.3242 45.156 3.3242 90.312 0 37.328-6.2578 58.949-12.312 79.848-8.1797 28.211-15.895 54.848-3.3047 109.09 0.074218 0.29688 0.16797 0.51563 0.22266 0.8125-19.828 0.73828-36.406 2.9531-51.156 5.0391-39.914 5.7227-59.98 8.5273-96.738-29.242-32.324-33.195-26.438-51.508-15.73-84.773 6.6445-20.641 14.934-46.34 14.934-80.695-0.019532-34.715-8.75-60.91-15.785-81.977zm-353.89 177.07c4.8203 17.004 9.4141 33.305 11.41 59.039-87.082-0.83203-157.7-69.602-157.7-154.12 0-79.477 65.336-144.61 147.8-150.2-1.3125 24.055-4.0234 39.988-6.8672 56.418-3.9883 23.023-8.125 46.836-8.125 93.691 0 47.633 6.8516 71.797 13.477 95.172zm26.641-7.5312c-6.3867-22.559-12.426-43.848-12.426-87.617 0-44.473 3.7461-66.094 7.6992-88.965 2.9336-16.91 5.9062-34.32 7.3125-60.867 78.441 7.7188 137.74 70.801 137.74 149.95 0 77.539-54.461 139.83-127.98 151.92-2.1953-28.512-7.3281-46.715-12.352-64.418zm-355.81-5.7422c11.613 34.32 17.445 51.562-14.898 83.945-37.754 37.824-57.746 34.742-97.625 28.578-14.289-2.2148-31.586-4.7617-52.117-5.7031 0.074219-1.957 0.27734-3.8398 0.27734-5.8516 0-47.004-4.5977-70.875-9.0469-93.969-4.3906-22.824-8.5273-44.367-8.5273-88.711 0-45.875-0.60938-68.824-1.2188-91.754-0.48047-18.055-0.96094-36.297-1.125-65.723 1.2539 0.38672 2.5117 0.79297 3.8945 0.79297 36.812 0 64.191-11.445 86.195-20.621 32.438-13.586 50.363-21.027 81.047 9.6914 32.141 32.18 25.66 50.805 13.883 84.629-7.4219 21.305-16.652 47.832-16.652 82.91 0.019531 34.762 8.8242 60.832 15.914 81.785zm252.39 264.33c-22.469 2.0117-43.68 3.9336-87.359 3.9336-45.805 0-69.082 5.0391-91.586 9.9336-22.043 4.7812-42.887 9.3047-85.734 9.3047-33.398 0-59.059 7.1094-81.691 13.383-16.023 4.4297-29.871 8.2539-42.664 8.2539-12.773 0.019531-28.91-3.1562-51.73-26.676-30.812-31.754-21.137-51.008-3.582-85.977 8.6406-17.227 18.664-37.496 23.926-62.051 19.848 0.73828 36.5 3.1758 51.285 5.4648 13.992 2.1602 26.715 4.1367 39.176 4.1367 25.66 0 50.16-8.3438 82.281-40.484 44.473-44.566 33.34-77.5 21.543-112.39-6.7734-20.012-14.438-42.703-14.438-72.922 0-30.387 8.0312-53.465 15.102-73.809 12.312-35.391 23.945-68.844-20.438-113.3-43.828-43.883-76.598-30.184-111.32-15.691-20.77 8.6602-44.27 18.48-75.527 18.48-1.4414 0-2.7305 0.40625-4.043 0.8125-0.14844-36.961-10.449-65.227-19.586-90.129-13.938-37.992-22.34-60.941 10.91-95.242 18.516-19.109 32.012-21.562 41.688-21.562 14.234 0 29.723 6.4414 47.648 13.902 25.254 10.504 53.871 22.43 91.312 22.43 45.23 0 68.215-3.082 90.441-6.0742 22.301-2.9922 43.383-5.8164 86.75-5.8164 43.625 0 64.82 2.125 87.25 4.3555 21.949 2.1953 44.695 4.4492 89.004 4.4844-0.27734 39.25-2.3828 59.98-4.6328 81.562-2.3633 22.801-4.8359 46.395-4.8359 92.789 0 1.7188-0.035156 3.1758-0.054688 4.8359-98.105 5.3164-176.27 82.965-176.27 177.93 0 100.12 83.574 181.55 186.39 181.86 0 0.29688 0.019531 0.53516 0.019531 0.83203 0 44.586-3.1211 63.934-6.4258 84.406-2.9922 18.5-6.0352 37.699-6.6445 75.047-36.055 0.37891-56.457 2.207-76.156 3.9805zm619.37 17.297c-23.262 24-39.637 27.23-52.617 27.23-12.555 0-26.16-3.6016-41.926-7.7891-22.301-5.9258-47.574-12.645-80.527-12.645-43.773 0-66.035-1.6445-87.562-3.25-22.023-1.625-44.824-3.3242-89.629-3.3242-42.664 0-63.398-5.0391-85.348-10.395-20.16-4.9102-41.039-9.9336-77.945-10.965 0.57422-35.078 3.3594-52.543 6.2969-70.781 3.3398-20.66 6.7734-42.02 6.7734-88.836 0-1.0508-0.054687-1.9219-0.054687-2.9531 88.559-12.758 154.6-87.008 154.6-179.72 0-94.414-71.078-169.44-164.68-177.62 0-1.7539 0.054688-3.3242 0.054688-5.1328 0-44.973 2.2891-66.812 4.6875-89.926 2.2344-21.398 4.5234-43.754 4.8008-84.738 28.172-0.64453 45.988-2.2695 63.195-3.8594 22.449-2.0859 43.66-4.043 87.305-4.043 43.719 0 64.965 1.9023 87.453 3.9141 22.078 1.9766 44.953 4.0234 89.891 4.0234 33.414 0 57.414-6.6641 76.727-12.02 12.977-3.6016 23.242-6.4414 32.844-6.4414 10.875 0 25.219 3.3594 49.348 28.211 33.562 34.598 28.043 50.324 17.023 81.656-6.5547 18.645-14.512 41.539-15.969 73.051-27.508-0.66406-49.07-7.8828-68.031-14.473-34.82-12.094-67.719-23.539-110.71 20.621-43.848 45.027-32.73 78.312-20.992 113.56 6.7188 20.141 14.344 42.996 14.344 73.219 0 30.02-7.2188 52.43-13.586 72.203-11.648 36.203-21.73 67.441 22.246 112.6 31.883 32.73 56.473 41.004 82.578 41.004 12.02 0 24.352-1.7539 37.883-3.6562 15.766-2.2344 33.617-4.6523 55.254-5.0039 7.3828 21.73 16.078 39.508 23.52 54.5 19.637 39.387 27.723 55.707-7.2422 91.781z" fill="#fff"/>
</svg>
