<?xml version="1.0" encoding="UTF-8"?>
<svg width="1200pt" height="1200pt" version="1.1" viewBox="0 0 1200 1200" xmlns="http://www.w3.org/2000/svg">
 <path d="m565.31 136.22c-19.406 2.625-30.984 7.4531-40.312 16.781-7.875 7.7344-13.547 17.578-17.812 30.844-2.5312 7.9219-4.9219 20.531-5.3906 28.547-0.70312 11.672 1.8281 34.219 5.625 49.875 2.0625 8.4844 7.3125 24.656 9.5625 29.531 0.84375 1.6875 1.3594 3.4688 1.2188 3.7969-0.375 0.84375-5.3438 3.9844-26.906 16.922-39.469 23.672-45.75 28.969-70.781 58.781-7.9219 9.4688-14.25 15.75-20.062 19.875-4.875 3.4688-29.766 18.375-40.406 24.328-17.719 9.75-20.719 11.484-32.812 18.938-12.094 7.4062-22.266 14.438-30.469 20.859-6.8438 5.3438-17.297 16.312-23.953 25.125-7.9688 10.406-13.688 16.641-18.094 19.5-4.0312 2.625-13.172 6.5625-25.875 11.062-21.797 7.875-34.266 12.562-38.906 14.719-13.875 6.4688-25.828 17.719-29.953 28.078-3 7.5469-3.75 17.766-1.8281 24.094 2.0625 6.5625 6.5156 11.531 14.109 15.938 3.7031 2.1094 13.031 5.1094 26.531 8.5312 15.562 3.9375 19.688 4.5 25.031 3.6562 9.8906-1.6406 18.234-6.9375 42.188-26.719 25.688-21.188 52.969-39.609 90.234-60.703 7.2656-4.125 16.359-9.3281 20.203-11.625 7.0312-4.125 13.828-7.5 25.688-12.656l6.3281-2.7656 3.375 0.9375c7.0781 1.9688 16.781 0.84375 26.156-3.0469 7.0781-3 20.859-9.8438 26.672-13.359 7.5938-4.5938 14.812-7.875 17.297-7.875 3.6562 0 5.8594 4.125 11.344 21.516 1.9219 6.0469 4.9688 15.234 6.75 20.391 3.2344 9.2812 3.2812 9.4688 3.2812 15.984 0 4.4062-0.42188 8.6719-1.1719 12.562-1.5938 7.7344-6.6562 25.219-11.766 40.406-2.25 6.75-4.3125 14.109-4.6406 16.359-0.51562 3.5625-1.6875 6.1875-10.219 22.688-16.828 32.344-22.734 45.938-36.375 83.625-4.125 11.25-8.6719 23.25-10.078 26.625-1.4531 3.375-3.1875 7.5469-3.7969 9.3281l-1.1719 3.1875-2.7656-0.28125c-1.4531-0.1875-5.4375-0.75-8.8594-1.3125-8.625-1.4531-20.062-1.3594-29.016 0.23438-13.781 2.4375-27.703 6.9844-51.281 16.594-15.703 6.4688-20.391 8.0625-23.344 8.0625-1.9688 0-4.3125-0.9375-11.719-4.7344-5.0625-2.625-10.688-5.25-12.422-5.9062-9.1875-3.2344-21.656-2.3438-32.062 2.25-9.75 4.3125-51.469 32.297-72.891 48.844-26.531 20.578-38.719 38.25-36.75 53.484 1.4062 10.359 9.375 16.781 23.25 18.656 10.5 1.4062 25.312-2.1094 84.75-20.25 39.422-12 38.531-11.766 52.594-13.641 6.6562-0.89062 11.625-0.9375 36.469-0.70312 57.562 0.46875 80.109 0.28125 89.344-0.84375 29.297-3.4688 47.25-8.6719 68.906-19.922 14.953-7.7812 27.938-16.641 38.344-26.062l4.9688-4.5938 4.1719-0.375c7.4531-0.70312 13.781-3.5625 21.516-9.7969 2.3438-1.8281 11.016-10.266 19.266-18.703 8.3438-8.4844 15.375-15.281 15.656-15.188 1.1719 0.42188 11.672 13.547 20.719 25.969 10.359 14.25 13.312 18 19.969 25.781 5.9062 6.8438 6.4688 7.9219 6.0469 11.906-0.42188 4.125-6.4688 16.5-14.297 29.578-3.0938 5.2031-6.9375 11.906-8.4375 14.906-5.1562 10.125-8.8594 23.531-10.781 39.422-1.2188 9.9375-4.0312 25.359-5.6719 30.75-1.7812 6.0938-3.7031 10.031-11.812 24.188-17.156 29.906-25.594 50.906-25.547 63.797 0.046875 9.3281 2.625 14.578 11.438 23.344 12.75 12.703 25.828 20.391 39.281 23.062 6.7969 1.3594 24.938 3.2812 39.281 4.2188 24.328 1.5 36.984-2.2969 42.375-12.656 1.3594-2.4375 1.5938-3.7031 1.5938-7.9219 0-4.5-0.1875-5.3906-1.9688-9.0938-3.4688-6.9844-12-14.344-38.859-33.562-2.8125-1.9688-5.2031-4.1719-5.4375-4.7344-0.89062-2.7656 4.9219-15.047 17.156-36.516 4.5-7.875 11.25-19.781 15.047-26.531 3.7969-6.7969 12.234-21.562 18.75-32.812 16.031-27.703 18.797-32.766 30.234-54.469 5.3906-10.312 12.375-23.484 15.469-29.297 16.172-30.234 17.578-34.125 17.531-48.938-0.046875-8.3438-0.23438-9.6562-1.9219-16.125-1.7812-6.5156-1.9219-8.0625-2.3906-20.203-0.9375-23.953-2.2969-28.5-18.562-63.844-12.656-27.422-15.938-33.656-25.828-48.516l-4.3125-6.6094 0.98438-3.9375c3.0938-12.375 4.0312-25.125 3.6562-49.312-0.42188-23.391-0.98438-28.5-7.125-57.422-1.5938-7.2188-1.5938-7.5938-1.3125-24 0.375-21.047 3.5156-53.859 6-62.438 3.0938-10.594 11.625-27.891 19.969-40.5 5.5781-8.3906 8.8594-10.594 27.938-19.172 11.203-4.9688 16.641-8.3906 20.859-13.031 4.7344-5.2031 7.125-11.25 8.0156-20.344 0.42188-4.5-0.046875-4.2188 8.1562-4.7812 13.547-0.9375 37.219-6.0938 52.781-11.484 20.625-7.125 33.234-13.641 62.625-32.344 26.625-16.969 37.5-22.078 57.703-27.188 15.844-3.9375 20.578-5.5312 27.609-9 12.141-6.0469 28.359-18.375 35.344-26.906 6.5625-8.0156 11.766-18.562 12.844-26.062 2.1094-15.281-9-30.281-25.688-34.5-10.312-2.5781-25.828-2.7656-33.375-0.375-9.375 3-13.875 6.0938-25.781 17.531-12.75 12.375-22.688 19.031-33.375 22.547-6.8438 2.25-11.719 3.0938-27.75 5.0625-49.5 6.0938-73.312 13.547-117.7 36.844-8.8125 4.6406-9.0938 4.7344-13.172 4.7344-4.9219 0.046875-8.8125 1.4062-14.25 5.1094-4.3125 2.9062-9.4219 5.5781-13.406 6.9375-8.3438 2.7656-22.922 5.25-35.438 6.0938-13.594 0.9375-23.391 2.8125-42.188 8.25-14.156 4.1719-24.422 5.625-33.703 4.7812l-4.6875-0.42188-0.75-2.9062c-0.89062-3.375-0.70312-9.375 0.75-25.5 2.0625-22.594-0.375-42.656-7.0781-58.641-3-7.125-9.8438-19.125-13.875-24.375-8.0156-10.406-19.781-16.359-37.594-18.938-4.9688-0.70312-5.5312-0.65625-12.703 0.28125zm16.969 31.594c6.9375 1.875 9.8906 4.9688 16.172 16.781 5.7188 10.875 7.7812 19.453 8.3906 34.266 0.375 9.6094-0.9375 27.375-2.5312 34.594-2.3906 10.781-11.484 23.672-22.594 32.344-6.6094 5.0625-14.062 7.2656-20.156 6.0469-7.0781-1.4531-13.969-6.4688-16.594-11.953-7.0781-15.094-12.938-43.5-12.938-62.438 0-10.5 3.2344-24.469 7.6875-33.328 6.1406-12.375 14.625-16.922 31.594-16.969 5.0625-0.046875 9 0.23438 11.016 0.75zm435.05 9.75c2.8594 0.375 6.0938 0.98438 7.2656 1.4531 1.8281 0.75 1.9688 1.0312 1.6406 2.4375-1.5938 6.4688-12.094 16.828-24.938 24.844-7.0312 4.4062-11.25 6-23.625 9-27.188 6.6094-40.266 12.656-72.703 33.516-28.641 18.375-44.578 25.828-68.859 32.156-14.062 3.6562-34.406 6.6094-35.344 5.1562-0.1875-0.28125-0.51562-5.6719-0.70312-12-0.46875-11.25-0.42188-11.484 0.84375-12.656 1.9219-1.8281 30.891-16.125 41.203-20.344 21.141-8.7188 40.594-13.312 72.562-17.062 27.141-3.1875 40.828-7.2656 54.891-16.406 8.625-5.625 13.359-9.4688 25.078-20.531 8.1562-7.5938 10.078-8.9531 14.297-9.6562 1.4531-0.23438 2.8125-0.46875 3-0.51562 0.1875 0 2.625 0.23438 5.4375 0.51562zm-247.55 119.91c0.09375 22.078 0.09375 22.969-1.0312 24.375-0.70312 0.9375-4.2656 2.8594-9.4688 5.1562-8.3906 3.7031-17.578 8.2031-21.656 10.688-1.2188 0.70312-2.3906 1.125-2.5781 0.89062-0.23438-0.1875 0.84375-5.1562 2.3438-10.969 4.0312-15.844 3.6562-21.328-1.9219-26.531s-13.359-5.3438-18.984-0.42188c-3.75 3.3281-5.1562 6.6562-9.1406 22.312-8.625 33.562-12.375 55.219-15.281 87.562-0.65625 7.4062-1.875 20.344-2.625 28.688-2.3438 24.188-2.8125 33.094-2.4375 47.156 0.23438 11.156 0.51562 14.25 1.7812 19.922 6.6094 30.234 6.5625 29.906 6.5625 58.031 0 13.078-0.1875 24.422-0.46875 25.312-0.51562 1.9688-1.1719 1.9688-7.2188 0.42188-3.5156-0.9375-7.0312-1.3125-14.578-1.5-12.188-0.375-19.125 0.65625-36.797 5.4375-37.453 10.219-48.797 12.188-68.391 12.188-12.375 0-12.844-0.046875-23.156-2.25-11.906-2.5312-26.625-7.0781-27.094-8.3906-0.1875-0.46875 1.5-6.75 3.7969-13.875 9.6562-29.906 12.422-42.375 12.422-55.734-0.046875-9-0.98438-14.156-4.4062-23.859-1.5-4.2656-3.9375-11.484-5.3438-15.984-4.7344-14.766-6.7969-20.438-9.3281-25.781-9-18.938-25.734-27-43.406-21.094-5.0625 1.6875-15.422 6.7969-22.312 10.969-5.5312 3.2812-20.25 10.5-24.188 11.766-1.6875 0.5625-3 0.70312-3.6562 0.375-0.51562-0.28125-5.2031-6.0938-10.5-12.938-5.25-6.8438-10.688-13.875-12.094-15.562-1.4062-1.7812-2.5312-3.375-2.5312-3.6562s3-2.2969 6.6094-4.4531c20.062-12.094 27.703-18.656 43.547-37.734 8.8125-10.688 19.219-21.516 25.406-26.531 5.9062-4.7344 15.75-11.203 35.438-22.969 9-5.4375 18.844-11.438 21.844-13.312s5.8125-3.5625 6.2812-3.75c0.51562-0.23438 3 1.7812 6.5625 5.1562 11.344 10.781 22.734 16.453 38.719 19.219 13.594 2.3438 24.094 0.98438 34.969-4.5938 6.1875-3.1875 13.828-11.062 17.391-18.047 3.3281-6.375 5.5781-13.875 6.0938-20.156 0.23438-2.5781 0.70312-4.9219 1.0312-5.2031 0.375-0.28125 5.1562-0.65625 10.594-0.84375 11.531-0.375 17.625-1.4531 35.156-6.5156 14.484-4.125 21.375-5.5312 30.891-6.1875 18.656-1.4062 33.703-3.9844 45-7.7812 3.375-1.125 6.5625-2.0625 7.0312-1.9688 0.75 0.09375 0.89062 3.1875 1.0312 23.016zm-163.4 10.875c-1.8281 3.7031-3.8438 5.5781-7.4062 6.9375-3.2812 1.2188-6.6094 1.5-6.6094 0.65625 0-0.23438 0.98438-1.1719 2.2969-1.9688 1.2188-0.84375 4.5938-3.375 7.4531-5.6719 5.625-4.5 6.6094-4.4531 4.2656 0.09375zm-232.55 142.97c7.0781 8.8594 12.281 15.844 12.281 16.406 0 0.28125-0.98438 0.9375-2.1562 1.4531-6 2.3906-16.219 7.5938-21.188 10.688-3.0938 1.875-7.4531 4.4062-9.75 5.625-18.797 10.312-47.578 27.656-64.688 39.094-14.906 9.9375-20.719 14.438-51.844 39.562-10.781 8.6719-15 11.297-18.188 11.297-2.1562 0-21.938-4.7812-26.953-6.6094-1.3125-0.42188-2.625-1.2188-2.9062-1.8281-1.5-2.3906 4.6875-8.8125 12.562-12.891 3.5625-1.9219 15.469-6.4688 40.828-15.562 16.969-6.1406 27.469-11.203 33.938-16.312 5.25-4.1719 11.344-10.828 20.109-22.078 11.438-14.578 17.25-20.062 33.188-30.891 13.312-9.0938 37.5-23.344 39.609-23.344 0.46875 0 2.8594 2.4375 5.2031 5.3906zm307.26 168.37c1.9688 0.51562 5.1562 1.6875 7.125 2.625 3.0469 1.4531 4.2188 2.4375 7.9688 7.2656 4.9219 6.2812 12.938 19.266 17.344 28.125 4.2656 8.5312 19.594 42.094 21.516 46.969 0.89062 2.2969 1.4531 4.5938 1.3125 5.0625-0.23438 0.5625-1.875 0.9375-5.6719 1.1719-16.594 1.1719-37.031 8.5312-52.453 18.844-8.5312 5.6719-15 10.969-22.922 18.562-3.5625 3.5156-6.7969 6.3281-7.125 6.3281-0.28125 0-2.3438-2.4375-4.5938-5.4375-5.1562-7.0312-13.781-17.766-18.656-23.156-2.1094-2.3438-3.8438-4.6875-3.8438-5.2031s1.875-3.9844 4.2188-7.7344c4.875-7.9219 8.9062-15.75 9.7969-19.125 1.6406-6.1406 0.23438-11.344-4.2188-15.281-6.4688-5.6719-14.344-4.7812-20.625 2.2969-1.6406 1.7812-5.3906 7.2656-8.3906 12.234-9.8906 16.359-18.375 27.703-29.719 39.938-9.7969 10.5-22.781 23.203-23.859 23.203-0.5625 0-2.1094-1.9688-3.75-4.875-14.578-25.312-30.516-40.406-47.109-44.578-5.1562-1.3125-16.219-1.8281-21.938-0.98438-2.5781 0.375-4.9219 0.42188-5.1562 0.1875-0.65625-0.65625 7.9219-23.484 13.359-35.859 4.0312-9.1875 20.625-42.703 22.078-44.766 0.75-1.0312 1.125-0.98438 8.6719 1.5938 9.0938 3.0938 11.812 3.7969 23.344 6.2812 12.609 2.7188 15.516 3 29.953 3 23.156 0 30.188-1.2188 82.078-14.625 5.0625-1.3125 11.156-2.5781 13.5-2.9062 5.3906-0.70312 13.078-0.375 17.766 0.89062zm-187.13 118.31c3.75 1.9219 10.688 8.625 15.375 14.953 3.8438 5.2031 9.8438 14.906 9.8438 15.938 0 1.125-6.5156 7.3125-12.094 11.531-7.4062 5.5312-14.25 9.6094-25.406 15.234-16.969 8.4844-31.125 12.422-55.078 15.422-7.125 0.89062-57.656 0.9375-84.938 0.09375l-16.688-0.51562-1.5938-7.5938c-0.89062-4.2188-1.5938-8.2031-1.4531-8.9531 0.09375-1.125 2.25-2.1562 16.828-8.0156 28.172-11.438 39.422-15.094 52.125-17.062 7.2656-1.125 12.656-0.84375 23.438 1.2188 10.828 2.0625 12.375 2.1562 16.781 1.4531 5.5312-0.89062 9.5625-2.8594 13.5-6.5625 4.1719-3.9375 5.4375-6.1406 8.3906-14.531 3.2344-9.1406 3.375-9.3281 10.078-11.016 13.031-3.2812 15.281-3.6562 21.609-3.4688 5.3906 0.1875 6.5625 0.42188 9.375 1.875zm245.39 4.2188c0.375 0.5625 0.75 2.5312 0.98438 4.2656 0.23438 1.7812 1.1719 6.3281 2.1094 10.125 2.3906 9.8906 2.1562 15.703-0.89062 22.875-0.51562 1.2188-3.7969 7.5469-7.3125 14.062-3.4688 6.5156-12 22.594-18.938 35.859-6.9844 13.172-18.094 33.516-24.797 45.094-10.547 18.281-31.5 55.125-45.844 80.391-2.3906 4.2656-4.6406 7.7812-4.9219 7.7812-0.89062 0-10.125-4.7812-10.594-5.4375-0.1875-0.375 1.2188-3.75 3.0938-7.5469 4.125-8.0625 5.8594-12.609 7.5-18.984 1.8281-7.0781 4.5-22.406 5.8594-32.766 1.4062-11.25 3.8438-21.328 6.6094-27.281 1.125-2.3906 5.0625-9.375 8.6719-15.516 7.7812-13.078 13.969-25.312 16.5-33.047 1.7812-5.1562 1.875-6.1406 1.9219-13.781 0-7.0781-0.1875-8.6719-1.3125-11.672-1.6406-4.2188-4.2656-8.8125-7.5938-12.844-1.4062-1.6875-2.5312-3.5156-2.5312-4.125 0-1.5938 13.125-14.438 20.203-19.781 10.266-7.875 17.109-11.531 27.891-15.094 7.3125-2.3906 12.656-3.4688 18.234-3.5156 3.75-0.046875 4.6406 0.09375 5.0625 0.9375zm-456.47 43.969 7.4531 3.9844 0.46875 2.9062c0.23438 1.6406 1.1719 6.6562 1.9688 11.297 0.84375 4.5938 1.3594 8.4844 1.1719 8.6719-0.1875 0.23438-3.0469 0.89062-6.375 1.4531-7.5 1.3594-9.7969 1.9688-42.375 11.953-34.594 10.5-35.438 10.781-49.688 14.625-6.6562 1.8281-12.703 3.2344-13.5 3.0938-1.1719-0.23438-0.89062-0.65625 2.5312-4.0312 8.4844-8.4375 28.875-23.531 55.688-41.25 30.188-19.969 29.531-19.734 42.656-12.75zm340.26 202.5 5.8594 3.0469 0.375 5.5781c0.89062 12.562 4.7344 17.859 21.516 29.906 3.2812 2.3438 6 4.5 6 4.7812 0 0.70312-3.375 0.5625-13.219-0.42188-12.234-1.3125-17.531-2.3438-21.844-4.4531-4.3125-2.1562-14.297-9.4688-16.969-12.609-1.6875-1.9219-1.875-2.3438-1.4531-4.5938 0.89062-5.4375 8.0625-23.344 10.031-24.797 1.125-0.89062 2.3438-0.42188 9.8438 3.5156z" fill="#fff"/>
 <path d="m446.76 874.78c-5.25 0.75-14.062 2.8125-19.031 4.4531-6.5156 2.1094-17.766 7.9219-23.719 12.234-6.6562 4.7344-15.656 13.781-20.578 20.578-6.9375 9.5625-12.75 23.016-15.094 34.641-2.25 10.828-2.1094 25.875 0.23438 36.75 7.5469 34.641 34.312 61.172 69.609 69 4.7812 1.125 7.5469 1.3125 18 1.3594 10.781 0 13.078-0.1875 18.375-1.3594 17.812-3.9844 32.531-11.953 44.906-24.422 7.875-7.875 12.75-14.719 17.297-24 3.9375-8.0156 5.9062-13.781 7.7344-22.219 1.875-8.5312 1.875-26.156 0-34.688-5.6719-26.297-21.188-47.812-43.781-60.844-8.625-4.9219-20.109-8.9531-30.375-10.594-6.6562-1.0312-19.031-1.5-23.531-0.89062zm16.688 30.469c6.0938 0.75 10.688 1.9688 16.453 4.4062 5.6719 2.3906 12.844 6.9844 12.844 8.3438 0 0.51562-4.7812 5.8125-10.688 11.719-9.6094 9.6562-10.875 10.734-12.656 10.734-1.9219 0-16.875-3.0469-20.438-4.1719-1.4062-0.46875-3.0938-2.1562-6.5625-6.5625-6.4688-8.4375-12.938-17.438-12.938-18.094 0-1.6406 12.844-5.625 20.438-6.3281 7.5-0.65625 8.1562-0.65625 13.547 0zm-53.531 31.453c1.5938 2.25 5.0625 6.8438 7.7344 10.406l4.9219 6.375-0.42188 9.1406c-0.1875 4.9688-0.46875 9.6094-0.5625 10.312-0.1875 0.70312-1.4531 1.875-3.3281 2.8594-1.6875 0.89062-6.1875 3.4688-10.031 5.6719-3.75 2.25-7.125 3.8438-7.4531 3.7031-0.84375-0.51562-2.7188-6.9844-3.5156-12.188-0.98438-6.0938-0.46875-16.922 1.0312-22.969 2.1562-8.1562 6.375-17.297 8.0156-17.297 0.42188 0 2.0625 1.7812 3.5625 3.9375zm103.17 9.3281c2.5312 7.0781 3.5156 16.969 2.5781 24.844-0.89062 7.0781-1.1719 7.4531-4.5938 5.4375-1.4531-0.84375-3.9844-2.25-5.625-3.0469-2.5312-1.3125-3.5156-2.2969-6.3281-6.7969-1.875-2.9062-3.375-5.8125-3.375-6.4688-0.046875-1.2188 15.047-16.828 15.984-16.5 0.28125 0.09375 0.9375 1.2188 1.3594 2.5312zm-52.594 23.859 6.1406 1.3125 1.5938 2.625c2.25 3.6562 2.1094 4.4062-0.65625 5.5312-3.5156 1.4062-4.5938 1.2188-9.9375-1.875l-4.9688-2.8594-0.1875-3c-0.23438-3.6562-0.5625-3.5156 8.0156-1.6875zm-17.391 34.219c2.4375 1.4062 4.6406 2.9062 4.7812 3.4688 0.1875 0.46875 0.51562 4.1719 0.70312 8.1562 0.375 6.0469 0.28125 7.3125-0.42188 7.5938-1.3594 0.51562-11.719-2.3438-16.594-4.5938-5.9062-2.7656-12.141-6.9375-11.953-7.9688 0.1875-0.9375 4.7812-3.8438 11.906-7.6875 5.2031-2.7188 5.1094-2.7656 11.531 0.98438zm53.203-1.3125c1.5938 0.75 3 1.6875 3.1875 1.9219 1.1719 1.9219-18.984 16.172-20.578 14.531-0.65625-0.65625-0.09375-11.203 0.5625-11.812 0.70312-0.70312 12.609-6.0469 13.5-6.0938 0.23438 0 1.7812 0.65625 3.3281 1.4531z" fill="#fff"/>
</svg>
