<?xml version="1.0" encoding="UTF-8"?>
<svg width="1200pt" height="1200pt" version="1.1" viewBox="0 0 1200 1200" xmlns="http://www.w3.org/2000/svg">
 <path d="m1031.2 112.5c-14.914-0.015625-29.211-5.9492-39.758-16.492-10.543-10.547-16.477-24.844-16.492-39.758 0-6.6992-3.5742-12.887-9.375-16.238-5.8008-3.3477-12.949-3.3477-18.75 0-5.8008 3.3516-9.375 9.5391-9.375 16.238-0.015625 14.914-5.9492 29.211-16.492 39.758-10.547 10.543-24.844 16.477-39.758 16.492-6.6992 0-12.887 3.5742-16.238 9.375-3.3477 5.8008-3.3477 12.949 0 18.75 3.3516 5.8008 9.5391 9.375 16.238 9.375 14.914 0.015625 29.211 5.9492 39.758 16.492 10.543 10.547 16.477 24.844 16.492 39.758 0 6.6992 3.5742 12.887 9.375 16.238 5.8008 3.3477 12.949 3.3477 18.75 0 5.8008-3.3516 9.375-9.5391 9.375-16.238 0.015625-14.914 5.9492-29.211 16.492-39.758 10.547-10.543 24.844-16.477 39.758-16.492 6.6992 0 12.887-3.5742 16.238-9.375 3.3477-5.8008 3.3477-12.949 0-18.75-3.3516-5.8008-9.5391-9.375-16.238-9.375zm-75 38.082c-5.4688-7.3516-11.98-13.863-19.332-19.332 7.3516-5.4688 13.863-11.98 19.332-19.332 5.4688 7.3516 11.98 13.863 19.332 19.332-7.3516 5.4688-13.863 11.98-19.332 19.332z" fill="#fff"/>
 <path d="m318.75 337.5c-14.914-0.015625-29.211-5.9492-39.758-16.492-10.543-10.547-16.477-24.844-16.492-39.758 0-6.6992-3.5742-12.887-9.375-16.238-5.8008-3.3477-12.949-3.3477-18.75 0-5.8008 3.3516-9.375 9.5391-9.375 16.238-0.015625 14.914-5.9492 29.211-16.492 39.758-10.547 10.543-24.844 16.477-39.758 16.492-6.6992 0-12.887 3.5742-16.238 9.375-3.3477 5.8008-3.3477 12.949 0 18.75 3.3516 5.8008 9.5391 9.375 16.238 9.375 14.914 0.015625 29.211 5.9492 39.758 16.492 10.543 10.547 16.477 24.844 16.492 39.758 0 6.6992 3.5742 12.887 9.375 16.238 5.8008 3.3477 12.949 3.3477 18.75 0 5.8008-3.3516 9.375-9.5391 9.375-16.238 0.015625-14.914 5.9492-29.211 16.492-39.758 10.547-10.543 24.844-16.477 39.758-16.492 6.6992 0 12.887-3.5742 16.238-9.375 3.3477-5.8008 3.3477-12.949 0-18.75-3.3516-5.8008-9.5391-9.375-16.238-9.375zm-75 38.082c-5.4688-7.3516-11.98-13.863-19.332-19.332 7.3516-5.4688 13.863-11.98 19.332-19.332 5.4688 7.3516 11.98 13.863 19.332 19.332-7.3516 5.4688-13.863 11.98-19.332 19.332z" fill="#fff"/>
 <path d="m600 37.5c-46.57-0.097656-92.02 14.289-130.05 41.164-38.031 26.879-66.766 64.914-82.223 108.84-15.457 43.934-16.871 91.582-4.0469 136.35 1.3906 4.9102 2.9766 9.7539 4.6914 14.547-4.3828 1.1914-8.1602 3.9805-10.594 7.8203-2.4336 3.8359-3.3398 8.4453-2.5469 12.918l93.09 595.78-55.031 183.43c-1.7031 5.6758-0.61719 11.824 2.918 16.578 3.5391 4.7539 9.1172 7.5586 15.043 7.5625h337.5c5.9258-0.003906 11.504-2.8086 15.043-7.5625 3.5352-4.7539 4.6211-10.902 2.918-16.578l-55.031-183.43 93.09-595.79c0.57422-3.6758 0.039063-7.4375-1.5352-10.805-1.5703-3.3672-4.1133-6.1914-7.2969-8.1133-1.3164-0.74609-2.7148-1.332-4.1719-1.7383 16.32-45.453 17.578-94.953 3.5898-141.18-13.988-46.223-42.48-86.719-81.262-115.5-38.785-28.781-85.797-44.316-134.09-44.309zm0 37.5c44.691-0.039062 87.926 15.898 121.9 44.941 33.969 29.039 56.438 69.27 63.348 113.43 6.9102 44.152-2.1914 89.324-25.664 127.36-50.223 22.289-104.64 33.551-159.58 33.027-54.832 0.51953-109.14-10.695-159.29-32.891-4.6836-7.4844-8.8281-15.289-12.414-23.359h115.45c4.9727 0 9.7422-1.9766 13.258-5.4922 3.5156-3.5156 5.4922-8.2852 5.4922-13.258h18.75c4.9727 0 9.7422-1.9766 13.258-5.4922 3.5156-3.5156 5.4922-8.2852 5.4922-13.258v-131.25c0-4.9727-1.9766-9.7422-5.4922-13.258-3.5156-3.5156-8.2852-5.4922-13.258-5.4922h-18.75v-37.5c0-4.9727-1.9766-9.7422-5.4922-13.258-3.5156-3.5156-8.2852-5.4922-13.258-5.4922h-25.297c25.406-12.359 53.293-18.77 81.547-18.75zm-133.63 56.25h58.633v37.5c0 4.9727 1.9766 9.7422 5.4922 13.258 3.5156 3.5156 8.2852 5.4922 13.258 5.4922h18.75v93.75h-18.75c-4.9727 0-9.7422 1.9766-13.258 5.4922-3.5156 3.5156-5.4922 8.2852-5.4922 13.258h-108.59c-6.2695-30.066-4.9844-61.215 3.7344-90.664 8.7188-29.449 24.602-56.277 46.227-78.086zm254.68 918.75h-242.1l22.504-75h197.09zm-264.59 75 11.25-37.5h264.59l11.25 37.5zm240-187.5h-173.91l205.57-308.35c3.6367-5.5742 4.0469-12.66 1.0781-18.613-2.9688-5.957-8.875-9.8945-15.512-10.344-6.6406-0.44922-13.023 2.6523-16.77 8.1523l-198.3 297.46-56.664-362.65 126.04 126.33c4.7344 4.7188 11.621 6.5586 18.078 4.832 6.457-1.7266 11.508-6.7617 13.254-13.215 1.7422-6.4531-0.078125-13.348-4.7852-18.094l-162.43-162.8-13.785-88.219c56.844 26.57 118.95 39.988 181.69 39.258 62.742 0.73047 124.84-12.688 181.69-39.258z" fill="#fff"/>
 <path d="m632.15 154.66c23.168 7.0195 43.469 21.277 57.934 40.688 14.461 19.41 22.316 42.949 22.414 67.152 0 6.6992 3.5742 12.887 9.375 16.238 5.8008 3.3477 12.949 3.3477 18.75 0 5.8008-3.3516 9.375-9.5391 9.375-16.238-0.13281-32.273-10.613-63.656-29.902-89.535-19.285-25.879-46.359-44.895-77.25-54.25-4.7656-1.418-9.9023-0.88281-14.273 1.4844-4.375 2.3672-7.6289 6.375-9.0469 11.141-1.418 4.7695-0.88281 9.9023 1.4844 14.277 2.3672 4.3711 6.375 7.625 11.141 9.043z" fill="#fff"/>
 <path d="m726.66 301.81c-4.4922-2.1406-9.6523-2.4102-14.34-0.74219-4.6875 1.668-8.5156 5.1328-10.645 9.6328-2.6562 5.6016-5.7734 10.969-9.3203 16.051-2.9062 4.0703-4.0664 9.1367-3.2188 14.066 0.84766 4.9297 3.6328 9.3164 7.7305 12.188 4.1016 2.8672 9.1758 3.9766 14.098 3.0859 4.9219-0.89453 9.2852-3.7188 12.113-7.8438 4.7422-6.793 8.9141-13.969 12.469-21.449 2.1328-4.4961 2.3945-9.6484 0.73047-14.336-1.668-4.6836-5.1289-8.5156-9.6172-10.652z" fill="#fff"/>
</svg>
