<?xml version="1.0" encoding="UTF-8"?>
<svg width="1200pt" height="1200pt" version="1.1" viewBox="0 0 1200 1200" xmlns="http://www.w3.org/2000/svg">
 <path d="m1123.4 398.53c-4.6523-4.0625-11.371-4.5781-16.559-1.2539-53.965 34.375-85.773 73.293-111.3 104.57-22.137 27.102-38.125 46.672-57.102 48.352-17.113 1.457-41.094-11.039-74.418-39.637-21.176-18.168-31.922-35.039-32.824-51.617-1.4766-27.176 23.559-53.891 50.086-82.172 27.102-28.891 55.016-58.801 59.559-94.82 0.019531-0.18359 0.074218-0.35156 0.09375-0.51562 0.035156-0.22266 0.10938-0.40625 0.12891-0.62891 0.09375-0.75781-0.16797-1.4414-0.20312-2.1602-0.035156-0.83203 0.14844-1.625-0.054687-2.457-0.035157-0.16797-0.16797-0.27734-0.20313-0.42578-0.25781-0.92187-0.71875-1.7188-1.1641-2.5664-0.38672-0.77344-0.68359-1.6055-1.1992-2.2891-0.48047-0.64453-1.1641-1.0898-1.7539-1.6445-0.70312-0.66406-1.3477-1.3672-2.1797-1.8633-0.62891-0.37109-1.3477-0.51562-2.0508-0.79297-0.99609-0.38672-1.9375-0.8125-3.0273-0.97656-0.14844-0.019531-0.25781-0.10938-0.38672-0.12891-0.68359-0.054688-1.3125 0.16797-1.9766 0.20312-0.88672 0.019531-1.7539-0.12891-2.6602 0.074219-53.5 12.258-116.18 57.305-182.53 105.01-79.754 57.34-162.26 116.64-227.09 116.64-8.9531 0-19.645 0.074219-31.477 0.25781-0.074219 0-0.14844-0.035157-0.22266-0.035157-0.09375 0-0.16797 0.054688-0.27734 0.054688-31.789 0.5-72.645 1.8828-116.99 5.168-0.33203-0.019532-0.60938-0.18359-0.94141-0.18359-0.75781 0-1.4023 0.3125-2.125 0.42578-150.66 11.426-338.47 45.137-338.47 142.19 0 98.125 116.68 175 265.62 175 1.957 0 3.6172 0.035156 5.5391 0.035156 5.6875 23.207 5.9453 33.84 6.2227 45.008 0.35156 13.773 0.68359 28.023 9.8047 61.773 0.09375 0.37109 0.33203 0.62891 0.44141 0.97656 0.22266 0.62891 0.5 1.1797 0.8125 1.7734 0.5 0.96094 1.0703 1.8086 1.7344 2.6016 0.40625 0.44141 0.79297 0.88672 1.2539 1.293 0.83203 0.73828 1.7344 1.3125 2.7148 1.8477 0.5 0.27734 0.92188 0.55469 1.457 0.77344 1.5508 0.58984 3.2109 0.99609 4.9297 0.99609 19.348 0 28.762 0.90625 38.715 1.8828 10.172 0.99609 20.695 1.9922 41.371 1.9922 1.7188 0 3.3789-0.38672 4.9297-0.99609 0.51562-0.20312 0.96094-0.5 1.457-0.77344 0.97656-0.51562 1.9023-1.1094 2.7148-1.8477 0.46094-0.38672 0.84766-0.83203 1.2539-1.293 0.68359-0.79297 1.2383-1.6445 1.7344-2.6016 0.3125-0.57422 0.58984-1.1445 0.8125-1.7734 0.12891-0.35156 0.35156-0.60938 0.44141-0.97656 8.5273-31.57 12.812-43.312 17.336-55.734 3.9688-10.875 8.0508-22.043 14.934-46.578 2.9531 0.33203 5.9453 0.64453 8.8789 0.97656 42.406 4.6875 86.27 9.5273 172.56 9.5273 65.5 0 106.82-6.5156 141.49-14.473 4.6875 20.992 4.3203 31.922 3.875 43.238-0.60938 14.992-1.2188 30.441 8.0312 64.652 1.6602 6.1836 7.2539 10.246 13.367 10.246 0.18359 0 0.38672-0.074219 0.57422-0.074219 1.9766 1.1094 4.1523 1.9023 6.5742 1.9023 20.934 0 30.574-1.2734 39.895-2.5273 8.8438-1.1641 17.152-2.2891 36.258-2.2891 1.7344 0 3.3789-0.38672 4.9492-0.99609 0.51563-0.22266 0.96094-0.51562 1.457-0.77344 0.97656-0.51563 1.8828-1.1094 2.6953-1.8477 0.46094-0.38672 0.86719-0.84766 1.2539-1.3125 0.68359-0.77344 1.2188-1.625 1.7188-2.5469 0.33203-0.58984 0.60938-1.1797 0.84766-1.8477 0.10938-0.33203 0.35156-0.58984 0.42578-0.94141 8.6016-31.773 13.645-46.949 18.996-63.027 5.2422-15.766 10.672-32.031 19.457-64.578 0.58984-2.1602 0.48047-4.2812 0.074219-6.3516 12.332-0.58984 25.367-1.0352 40.137-1.0352 85.457 0 153.62-79.625 183.27-158.57 27.07-72.055 32.441-169.64-33.688-227.5zm-714.04 457.22c-4.0234 11.023-8.1602 22.414-15.211 47.629-12.48-0.27734-20.27-0.97656-28.191-1.7539-8.1797-0.79297-16.875-1.5859-30.609-1.8828-5.7031-23.262-5.9805-33.934-6.2383-45.102-0.27734-11.059-0.62891-22.598-5.4258-44.066 42.074 0.71875 72.516 2.75 98.66 5.207-5.7656 20.086-9.293 29.91-12.984 39.969zm478.54-7.9922c-4.6719 14.031-9.5078 28.543-16.688 54.48-13.848 0.35156-21.73 1.3672-29.297 2.3828-8.1055 1.0898-16.191 2.0664-32.195 2.2344-5.8164-24.109-5.4258-35.742-4.9492-47.852 0.51562-12.812 0.99609-26.086-4.6523-51.027 2.0508-0.51562 4.1367-1.0703 6.168-1.5859 29.465-7.6797 58.117-14.973 99.84-18.867-8.1094 29.793-13.039 44.652-18.227 60.234zm243.25-231.49c-26.289 69.988-85.125 140.6-157.33 140.6-87.305 0-131.65 11.559-174.54 22.727-43.09 11.227-83.797 21.84-167.54 21.84-84.758 0-127.85-4.7617-169.53-9.3398-39.25-4.3398-80.195-8.75-154.43-9.3984h-0.019531c-5.9648-0.054687-11.703-0.12891-18.109-0.12891-146.95 0-237.93-76.469-237.93-147.3 0-56.547 115.2-98.492 299.15-113.82 0.70313 39.488 6.5898 91.273 56.973 91.273 7.6445 0 13.848-6.2031 13.848-13.848 0-7.6445-6.2031-13.848-13.848-13.848-15.066 0-27.691-5.207-29.227-65.648 28.746-1.9023 58.984-3.1953 90.609-3.8398 1.2188 31.734 9.5078 86.73 65.629 86.73 7.6445 0 13.848-6.2031 13.848-13.848s-6.2031-13.848-13.848-13.848c-11.559 0-34.746-0.054687-37.828-59.41 5.8164-0.035156 11.594-0.09375 17.5-0.09375 73.773 0 159.95-61.938 243.27-121.86 53.688-38.586 104.75-75.121 148.23-92.492-9.8203 19.402-27.543 38.457-45.008 57.066-29.316 31.293-59.648 63.637-57.527 102.63 1.3281 24.535 15.23 47.797 42.461 71.152 39.934 34.246 69.137 48.426 94.91 46.191 30.574-2.7148 50.66-27.305 76.098-58.43 22.801-27.914 50.844-62.215 95.723-92.789 47.359 49.445 41.156 129.4 18.465 189.73z" fill="#fff"/>
</svg>
