<?xml version="1.0" encoding="UTF-8"?>
<svg width="1200pt" height="1200pt" version="1.1" viewBox="0 0 1200 1200" xmlns="http://www.w3.org/2000/svg">
 <path d="m132 324v612h954v-612zm465.6 427.2c-61.199-6-108-57.602-108-121.2 0-62.398 48-114 108-121.2zm24-241.2c61.199 6 110.4 57.602 110.4 121.2 0 63.602-48 115.2-110.4 121.2zm-465.6-36h93.602v312h-93.602zm0 336h117.6v-69.602c57.602-3.6016 104.4-51.602 104.4-110.4 0-58.801-45.602-106.8-104.4-110.4v-69.602h-117.6v-102h441.6v136.8c-74.398 7.1992-132 68.398-132 145.2s58.801 138 132 145.2v136.8h-441.6zm117.6-266.4c44.398 3.6016 80.398 40.801 80.398 86.398 0 45.602-34.801 82.801-80.398 86.398zm348 368.4v-136.8c75.602-6 134.4-68.398 134.4-145.2s-60-139.2-134.4-144v-138h441.6v102h-117.6v69.602c-57.602 3.6016-104.4 51.602-104.4 110.4 0 58.801 45.602 106.8 104.4 110.4v69.602h117.6l-0.003906 102zm440.4-438v312h-93.602v-312zm-117.6 243.6c-44.398-3.6016-80.398-40.801-80.398-86.398 0-45.602 34.801-82.801 80.398-86.398z" fill="#fff"/>
</svg>
